<svg width="18" height="17" viewBox="0 0 18 17" fill="none" xmlns="http://www.w3.org/2000/svg">
<path d="M14.3242 15.9375H6.88672C6.25269 15.9375 5.64462 15.6856 5.19629 15.2373C4.74796 14.789 4.49609 14.1809 4.49609 13.5469V6.10938C4.49609 5.47534 4.74796 4.86728 5.19629 4.41895C5.64462 3.97062 6.25269 3.71875 6.88672 3.71875H14.3242C14.9583 3.71875 15.5663 3.97062 16.0146 4.41895C16.463 4.86728 16.7148 5.47534 16.7148 6.10938V13.5469C16.7148 14.1809 16.463 14.789 16.0146 15.2373C15.5663 15.6856 14.9583 15.9375 14.3242 15.9375Z" fill="white"/>
<path d="M6.08984 2.65625H13.9218C13.7565 2.19049 13.4512 1.78728 13.0476 1.50194C12.6441 1.2166 12.1622 1.0631 11.668 1.0625H4.23047C3.59644 1.0625 2.98837 1.31437 2.54004 1.7627C2.09171 2.21103 1.83984 2.81909 1.83984 3.45313V10.8906C1.84044 11.3848 1.99394 11.8668 2.27928 12.2703C2.56463 12.6738 2.96783 12.9792 3.43359 13.1445V5.3125C3.43359 4.60802 3.71345 3.93239 4.21159 3.43425C4.70974 2.9361 5.38536 2.65625 6.08984 2.65625Z" fill="white"/>
</svg>
