<svg width="20" height="20" viewBox="0 0 20 20" fill="none" xmlns="http://www.w3.org/2000/svg">
<path d="M9.99995 17.5C9.74905 17.4997 9.50405 17.4239 9.29682 17.2824C6.2269 15.1984 4.8976 13.7695 4.1644 12.8762C2.6019 10.9719 1.85385 9.0168 1.87495 6.89961C1.89955 4.47344 3.84604 2.5 6.21401 2.5C7.93588 2.5 9.12846 3.46992 9.82299 4.27773C9.84499 4.30307 9.87218 4.32338 9.90271 4.3373C9.93323 4.35122 9.96639 4.35842 9.99995 4.35842C10.0335 4.35842 10.0667 4.35122 10.0972 4.3373C10.1277 4.32338 10.1549 4.30307 10.1769 4.27773C10.8714 3.46914 12.064 2.5 13.7859 2.5C16.1539 2.5 18.1003 4.47344 18.1249 6.9C18.146 9.01758 17.3972 10.9727 15.8355 12.8766C15.1023 13.7699 13.773 15.1988 10.7031 17.2828C10.4958 17.4241 10.2508 17.4998 9.99995 17.5Z" fill="#E53E3E"/>
</svg>
