<svg width="25" height="12" viewBox="0 0 25 12" fill="none" xmlns="http://www.w3.org/2000/svg">
<path d="M9.57872 11H6.67308C5.3674 11 4.11519 10.4732 3.19194 9.53554C2.26868 8.59785 1.75 7.32608 1.75 6C1.75 4.67392 2.26868 3.40215 3.19194 2.46447C4.11519 1.52678 5.3674 1 6.67308 1H9.51462M15.3187 1H18.1603C19.4659 1 20.7181 1.52678 21.6414 2.46447C22.5647 3.40215 23.0833 4.67392 23.0833 6C23.0833 7.32608 22.5647 8.59785 21.6414 9.53554C20.7181 10.4732 19.4659 11 18.1603 11H15.2546M7.95872 6H16.9772" stroke="white" stroke-width="2" stroke-linecap="round" stroke-linejoin="round"/>
</svg>
