<svg width="35" height="35" viewBox="0 0 35 35" fill="none" xmlns="http://www.w3.org/2000/svg">
<path d="M17.5 2.1875C9.04395 2.1875 2.1875 9.22168 2.1875 17.8896C2.1875 24.8281 6.57617 30.707 12.6602 32.7852C12.7455 32.8037 12.8326 32.8129 12.9199 32.8125C13.4873 32.8125 13.7061 32.3955 13.7061 32.0332C13.7061 31.6572 13.6924 30.6729 13.6855 29.3604C13.179 29.4791 12.6609 29.541 12.1406 29.5449C9.19434 29.5449 8.52441 27.2549 8.52441 27.2549C7.82715 25.4434 6.82227 24.958 6.82227 24.958C5.48926 24.0215 6.81543 23.9941 6.91797 23.9941H6.9248C8.46289 24.1309 9.26953 25.6211 9.26953 25.6211C10.0352 26.9609 11.0605 27.3369 11.9766 27.3369C12.5823 27.3248 13.1786 27.185 13.7266 26.9268C13.8633 25.915 14.2598 25.2246 14.6973 24.8281C11.2998 24.4316 7.72461 23.085 7.72461 17.0693C7.72461 15.3535 8.31934 13.9521 9.29688 12.8584C9.13965 12.4619 8.61328 10.8623 9.44727 8.70215C9.55913 8.67538 9.67411 8.66388 9.78906 8.66797C10.3428 8.66797 11.5938 8.87988 13.6582 10.3154C16.1667 9.61359 18.8197 9.61359 21.3281 10.3154C23.3926 8.87988 24.6436 8.66797 25.1973 8.66797C25.3122 8.66388 25.4272 8.67538 25.5391 8.70215C26.373 10.8623 25.8467 12.4619 25.6895 12.8584C26.667 13.959 27.2617 15.3604 27.2617 17.0693C27.2617 23.0986 23.6797 24.4248 20.2686 24.8145C20.8154 25.2998 21.3076 26.2568 21.3076 27.7197C21.3076 29.8184 21.2871 31.5137 21.2871 32.0264C21.2871 32.3955 21.499 32.8125 22.0664 32.8125C22.1583 32.8129 22.2499 32.8037 22.3398 32.7852C28.4307 30.707 32.8125 24.8213 32.8125 17.8896C32.8125 9.22168 25.9561 2.1875 17.5 2.1875Z" fill="currentColor"/>
</svg>
