<svg width="24" height="25" viewBox="0 0 24 25" fill="none" xmlns="http://www.w3.org/2000/svg">
<path d="M23.25 5.63282C22.406 5.99955 21.513 6.24116 20.5992 6.35001C21.5595 5.78769 22.2817 4.89434 22.6303 3.83751C21.7224 4.36841 20.7307 4.74092 19.6978 4.93907C19.2629 4.48323 18.7397 4.12059 18.1603 3.8732C17.5808 3.62581 16.9571 3.49884 16.327 3.50001C13.7761 3.50001 11.7117 5.53439 11.7117 8.0422C11.7099 8.39103 11.7499 8.73882 11.8308 9.07814C10.0016 8.99239 8.2104 8.52576 6.57187 7.7081C4.93333 6.89045 3.48351 5.73977 2.31516 4.3297C1.90527 5.02069 1.6885 5.80909 1.6875 6.61251C1.6875 8.18751 2.50922 9.57971 3.75 10.3953C3.01487 10.3779 2.29481 10.1833 1.65094 9.82814V9.88439C1.65094 12.0875 3.24469 13.9203 5.35406 14.3375C4.9574 14.4433 4.54864 14.4968 4.13812 14.4969C3.84683 14.4974 3.5562 14.4691 3.27047 14.4125C3.85687 16.2172 5.56359 17.5297 7.58531 17.5672C5.94252 18.8333 3.9256 19.5176 1.85156 19.5125C1.48341 19.512 1.11561 19.4901 0.75 19.4469C2.85993 20.7942 5.31255 21.5069 7.81594 21.5C16.3172 21.5 20.9616 14.5766 20.9616 8.57189C20.9616 8.37502 20.9564 8.17814 20.947 7.98595C21.8485 7.34473 22.6283 6.54788 23.25 5.63282Z" fill="#00ACEE"/>
</svg>
