<svg width="69" height="69" viewBox="0 0 69 69" fill="none" xmlns="http://www.w3.org/2000/svg">
  <path d="M47.4375 24.4375H61.8125L34.5 60.375L47.4375 24.4375Z" fill="#0D47A1"/>
  <path d="M7.1875 24.4375L21.5625 7.1875V24.4375H7.1875Z" fill="#84FFFF"/>
  <path d="M47.4375 7.1875V24.4375H61.8125L47.4375 7.1875Z" fill="#1976D2"/>
  <path d="M21.5625 24.4375L34.4943 60.5892L47.4375 24.4375H21.5625Z" fill="#0091EA"/>
  <path d="M21.5625 7.1875H34.5L21.5625 24.4375V7.1875Z" fill="#0091EA"/>
  <path d="M34.5 7.1875L47.4375 24.4375V7.1875H34.5Z" fill="#0091EA"/>
  <path d="M47.4375 24.4375H21.5625L34.5 7.1875L47.4375 24.4375Z" fill="#00B0FF"/>
  <path d="M47.4375 24.4375L54.625 21.5625L61.8125 24.4375L54.625 27.3125L47.4375 24.4375Z" fill="#00B0FF"/>
  <path d="M21.5625 24.4375H7.1875L34.4943 60.5892L21.5625 24.4375Z" fill="#00E5FF"/>
  <path d="M21.5625 24.4375L34.5 21.5625L47.4375 24.4375L34.5 27.3125L21.5625 24.4375Z" fill="#00E5FF"/>
  <path d="M7.1875 24.4375L14.375 21.5625L21.5625 24.4375L14.375 27.3125L7.1875 24.4375Z" fill="#E0F7FA"/>
</svg>